<svg xmlns="http://www.w3.org/2000/svg" width="2320" height="564" class="img-fluid" viewBox="0 0 23200 5640"><path d="M1987 4900c-69-12-132-46-171-92-62-72-66-98-66-415v-284l38 3 37 3 5 285c6 317 8 330 73 387 80 70 274 70 354 0 65-57 67-70 73-387l5-285 38-3 37-3v284c0 238-3 291-17 332-22 65-93 136-157 158-60 20-184 29-249 17zm8573 3c-110-18-184-67-225-149l-30-59v-580l37-3 36-3 4 278c3 200 8 288 18 313 39 102 97 135 240 134 78 0 102-3 137-21 101-54 113-102 113-440v-263h80v265c0 148-5 286-11 314-14 66-59 134-109 166-66 42-198 63-290 48zm2140-2c-131-24-229-118-230-218 0-32 2-33 39-33s39 1 45 40c15 94 130 157 267 148 116-9 189-66 189-150 0-91-48-124-240-168-217-49-271-89-278-204-3-54 0-66 26-107 57-88 213-132 357-100 94 21 175 99 190 184l7 37h-40c-38 0-40-2-46-35-15-81-91-125-212-126-128-1-204 54-204 147 0 78 46 107 242 149 143 32 183 46 221 83 43 40 57 75 57 137 0 134-92 208-275 219-38 3-90 1-115-3zm1618-7c-161-39-262-151-288-320-29-191 58-367 218-442 52-25 68-27 177-27 114 0 123 2 187 32 117 55 186 150 210 290 21 129-16 273-95 360-90 100-259 144-409 107zm254-84c158-74 222-289 140-473-48-110-145-168-280-168-138-1-223 45-281 152-35 63-36 66-36 179 0 99 3 122 23 165 39 85 107 142 199 165 61 15 182 5 235-20zm2557 82c-115-30-185-95-230-211-29-75-33-258-7-341 52-164 202-251 414-238 128 8 228 67 273 163 32 68 29 85-17 85-35 0-39-3-51-36-34-95-121-144-253-145-85-1-136 14-189 55-116 88-152 298-80 461 38 86 123 141 234 152 128 12 240-49 286-156 19-45 23-49 61-53 50-4 51 6 10 90-49 97-137 159-255 181-78 15-117 13-196-7zm1151 4c-73-16-153-60-197-109-78-87-115-224-95-354 22-141 89-236 209-295 65-32 72-33 188-33 109 0 125 2 177 27 184 86 268 299 203 514-57 190-266 298-485 250zm248-86c110-47 172-157 172-304 0-149-46-241-150-300-52-29-60-31-165-31-103 0-113 2-164 30-64 35-105 83-130 150-79 214 18 434 209 476 59 13 173 3 228-21zM6260 4510v-390h100v780h-100v-390zm-5620-11v-390l38 3 37 3 3 168 2 167h510v-340h80v780h-80v-370H720v370h-80v-391zm2210 1v-391l61 3 60 3 138 333c75 184 141 334 145 335s68-146 142-327c73-181 137-333 142-338s33-8 63-6l54 3 3 388 2 387h-80l-1-342c0-237-3-338-10-328-6 8-70 161-143 340l-133 325-39 3-40 3-139-341-140-341-3 340-2 341h-80v-390zm1169 368c5-13 81-187 169-388l160-365h94l164 385c90 211 164 386 164 388s-19 2-42 0l-42-3-50-118-49-117-196 2-195 3-51 115-51 115-42 3c-40 3-42 2-33-20zm538-290c-38-102-161-388-166-388-6 0-148 340-158 379-5 21-3 21 162 21 130 0 166-3 162-12zm573-78v-390h86l249 340 250 340 5-337 5-338 38-3 37-3v781h-95l-245-336-245-335-3 335-2 336h-80v-390zm1870 35v-355h-270v-70l313 2 312 3 3 32 3 32-138 3-138 3-3 353-2 352h-80v-355zm940 189v-166l-145-209c-80-114-148-215-151-224-6-14 0-16 37-13l44 3 123 180c67 99 126 181 130 183 4 1 65-81 136-183l128-185h44c24 0 44 3 44 6s-70 102-155 221l-155 215v338h-80v-166zm1350 157-25-7-3-382-2-382h169c192 0 308 13 362 40 78 40 110 113 94 218-6 38-15 55-51 90-24 23-51 42-59 42-24 0-17 14 14 32 46 26 61 67 72 194 5 63 13 123 19 133 8 17 5 19-28 24-21 2-42-1-49-7s-17-61-23-128c-12-139-19-162-62-188-30-18-51-20-205-20h-173v175c0 186 2 180-50 166zm435-436c108-54 113-189 9-241-33-16-67-19-216-22l-178-4v294l173-4c147-3 178-6 212-23zm1677 58 3-388 40-3c32-2 45 2 61 20 12 13 123 163 248 333 125 171 231 312 237 313 5 2 9-128 9-333v-336l38 3 37 3 3 388 2 387h-96l-245-335c-134-184-246-335-249-335s-5 150-5 333v332l-43 3-42 3 2-388zm3828-3v-390h88l248 338 249 339 5-336 5-336 38-3 37-3v782l-47-3-48-3-245-334-245-335-3 337-2 337h-80v-390zm3950 0v-390l278 2 277 3 3 33 3 32h-481v270h430v70h-430v370h-80v-390zm910 0v-390h550v70h-470v270h430v70h-430v370h-80v-390zm912 3 3-388h570l3 32 3 33-248 2-248 3-3 133-3 132h451v70h-450v300h510v70h-590l2-387zm973 374c-3-6-4-181-3-387l3-375 288-3 287-2v70h-490v270h440v70h-440v300h500v70h-290c-224 0-292-3-295-13zM2305 3035c-174-39-329-136-446-281-72-89-75-96-69-174 6-75 11-71 35 27 20 83 49 126 140 204 124 106 282 155 467 145 311-17 498-186 498-451 0-134-38-223-130-308-76-71-183-124-420-208-292-103-414-172-501-281-183-231-150-612 71-815 179-163 535-218 798-122 135 49 228 116 350 252l63 71-3 63c-2 35-7 63-13 62-5-1-20-36-32-78-19-68-27-81-76-126-138-126-322-195-515-195-260 1-431 121-478 335-38 171 7 329 121 434 91 83 180 127 445 221 268 96 371 150 466 245 98 97 135 193 135 349 0 325-213 572-546 632-98 17-279 17-360-1zm2734 0c-383-62-647-240-802-543-80-156-121-320-133-539-23-410 126-778 398-986 270-206 651-287 1038-221 251 43 467 158 643 343 208 218 307 477 307 801 0 209-30 372-98 530-137 324-383 519-757 602-120 26-468 34-596 13zm533-63c246-67 425-229 522-474 60-152 106-414 106-600-1-401-147-748-399-948-251-200-619-234-917-85-312 156-484 512-484 1003 0 279 38 495 119 667 116 248 291 389 551 446 119 26 390 21 502-9zm2683 59c-311-56-556-212-728-465-120-176-187-427-187-696 0-415 166-758 463-959 201-136 508-209 764-181 256 27 438 107 588 259 48 50 56 61 38 61-11 0-35-13-53-30-114-106-258-185-406-222-112-28-312-30-418-4-300 72-502 263-606 575-85 254-100 555-40 786 89 337 353 611 682 706 94 27 297 37 406 19 160-25 311-87 430-174 63-47 102-58 102-30 0 27-180 198-256 243-90 53-212 97-321 116-116 20-331 18-458-4zm9536 0c-16-10-7-16 35-25 41-9 70-37 86-83 16-50 24-1857 9-1996-12-106-28-135-89-157-72-27-60-33 58-27 178 9 274 50 305 130 14 38 15 139 13 1002l-3 960-22 47c-13 29-35 55-55 68l-33 20h892l20-22c12-13 25-40 28-61 14-72 25-48 25 52v101h-627c-346 0-634-4-642-9zm-2861-10c-68-6-69-11-7-31 73-23 68 58 65-1096-3-980-4-1041-21-1081-18-41-44-58-95-65-12-2-23-7-22-12 0-4 109-9 243-10 133-2 292-6 353-11 359-26 719 115 855 335 69 112 82 275 32 395-60 142-209 252-419 308l-83 22 112 27c206 50 341 121 459 239 128 128 175 251 165 434-7 125-34 207-96 288-107 141-300 225-589 256-105 11-831 13-952 2zm833-42c291-43 456-183 502-422 19-100 19-146-1-243-48-236-181-380-418-453-43-13-120-25-209-31-147-11-230-26-316-59l-51-19v516c0 316 4 531 10 553 21 73 72 128 146 154 48 17 235 20 337 4zm-5-1257c203-65 313-218 312-435-2-359-292-574-695-517-38 6-78 13-87 16-17 5-18 35-18 439v434l38 31c60 50 109 61 257 56 91-3 149-11 193-24zm-5113 1291c-115-24-199-78-236-152l-24-46-6-975c-5-1038-5-1032-53-1063-12-8-38-20-59-27-27-8-36-15-28-23 7-7 39-7 107 2 156 19 238 65 283 160l26 56 5 975c4 716 8 982 17 1001 15 34 56 66 93 74 53 12 32 25-37 24-38-1-77-3-88-6zm1275-3c0-5 16-12 35-16 58-10 80-41 120-165 20-63 176-541 346-1064 170-522 308-959 307-970-4-23-38-42-92-50-24-4-35-10-29-16 5-5 86-8 193-7l184 3 52 160c92 282 615 1888 631 1940 22 71 58 138 81 152 11 6 36 15 56 18 20 4 36 12 36 17 0 7-41 9-118 6-134-6-192-25-253-84-51-50-67-90-193-475l-112-344-364-3c-200-1-367 1-371 5-10 10-259 813-259 834 0 24 19 36 73 44 102 15 51 25-132 25-115 0-191-4-191-10zm1214-982c-60-193-338-1046-343-1056-6-10-342 1046-341 1071 0 4 156 7 346 7h345l-7-22zm6786 983c0-5 19-15 42-23 60-19 77-48 89-155 6-58 9-435 7-1030-4-1072 2-1001-85-1043-29-14-53-28-53-32 0-5 295-8 655-8h655v94c0 52-4 97-9 100s-14-16-21-42c-22-89 19-82-524-82h-480l44 23c52 26 78 59 90 113 5 21 10 184 10 362v322h403c457 0 437 4 457-80 7-27 16-50 21-50s9 72 9 160-4 160-9 160-14-20-20-45c-23-90 4-85-456-85h-405v550c0 444-3 557-14 583-16 40-85 102-141 128-40 18-33 19 547 19 658 0 609 6 629-76 6-24 15-44 20-44s9 43 9 95v95h-735c-432 0-735-4-735-9z" style="transform:none"/></svg>